# xmcd
#
# Track frame offsets: 
#        150
#        14919
#        41069
#        53881
#        74556
#        98244
#        111861
#        127636
#        146591
#        163521
#        185889
#        205021
#        215821
#        228336
#        247354
#        264891
#        281751
#        295108
#        314795
#        326785
#
# Disc length: 4663 seconds
#
# Revision: 0
# Processed by: cddbd v1.5PL3 Copyright (c) Steve Scherf et al.
# Submitted via: ExactAudioCopy v0.95a4
#
DISCID=47123514
DTITLE=Various Artist - 发烧专门店 1
DYEAR=1900
DGENRE=Blues
TTITLE0=秘密/班德拉
TTITLE1=变幻之风/班德拉
TTITLE2=绿袖子/娜塔莉.夏高
TTITLE3=月升/大卫.费德曼
TTITLE4=维萨多协奏曲/拜斯
TTITLE5=我的心是一把小提琴/小酒馆的情歌
TTITLE6=印地安梦幻/蓝色天际
TTITLE7=爱尔兰歌剧/神话专辑
TTITLE8=美丽嘉年华/真爱传奇专辑
TTITLE9=深情接触/爵士女伶专辑
TTITLE10=暴风将至/心海深处专辑
TTITLE11=丛林赤子心/丛林赤子心
TTITLE12=阿甘正传/麦迪司的电影音乐盒
TTITLE13=绿堤/绿色多摩川专辑
TTITLE14=卡莉贝/圣女传说专辑
TTITLE15=老鹰之歌/寂静山林专辑
TTITLE16=清晨/深情接触专辑
TTITLE17=早上的墙/天堂鸟专辑
TTITLE18=蓝色的爱/未知艺术家
TTITLE19=老鹰之歌/牧童笛专辑
EXTD=
EXTT0=
EXTT1=
EXTT2=
EXTT3=
EXTT4=
EXTT5=
EXTT6=
EXTT7=
EXTT8=
EXTT9=
EXTT10=
EXTT11=
EXTT12=
EXTT13=
EXTT14=
EXTT15=
EXTT16=
EXTT17=
EXTT18=
EXTT19=
PLAYORDER=
